<?xml version="1.0" encoding="UTF-8" standalone="no"?>
<!DOCTYPE svg PUBLIC "-//W3C//DTD SVG 1.1//EN"
 "http://www.w3.org/Graphics/SVG/1.1/DTD/svg11.dtd">
<!-- Generated by graphviz version 2.40.1 (20161225.0304)
 -->
<!-- Title: name Pages: 1 -->
<svg width="627pt" height="886pt"
 viewBox="0.00 0.00 626.50 886.00" xmlns="http://www.w3.org/2000/svg" xmlns:xlink="http://www.w3.org/1999/xlink">
<g id="graph0" class="graph" transform="scale(1 1) rotate(0) translate(4 882)">
<title>name</title>
<!-- district -->
<g id="node1" class="node">
<title>district</title>
<polygon fill="#e6e6fa" stroke="transparent" points="409.5,-307.5 409.5,-330.5 527.5,-330.5 527.5,-307.5 409.5,-307.5"/>
<polygon fill="none" stroke="#000000" points="409.5,-307.5 409.5,-330.5 527.5,-330.5 527.5,-307.5 409.5,-307.5"/>
<text text-anchor="start" x="444" y="-315.9" font-family="Helvetica,sans-Serif" font-weight="bold" font-size="12.00" fill="#000000">district</text>
<polygon fill="#ffffff" stroke="transparent" points="409.5,-288.5 409.5,-307.5 473.5,-307.5 473.5,-288.5 409.5,-288.5"/>
<polygon fill="none" stroke="#000000" points="409.5,-288.5 409.5,-307.5 473.5,-307.5 473.5,-288.5 409.5,-288.5"/>
<text text-anchor="start" x="412.5" y="-294.9" font-family="Helvetica,sans-Serif" font-size="12.00" fill="#000000">district_id</text>
<polygon fill="#ffffff" stroke="transparent" points="473.5,-288.5 473.5,-307.5 527.5,-307.5 527.5,-288.5 473.5,-288.5"/>
<polygon fill="none" stroke="#000000" points="473.5,-288.5 473.5,-307.5 527.5,-307.5 527.5,-288.5 473.5,-288.5"/>
<text text-anchor="start" x="476.5" y="-294.9" font-family="Helvetica,sans-Serif" font-size="12.00" fill="#000000">int</text>
<polygon fill="#ffffff" stroke="transparent" points="409.5,-269.5 409.5,-288.5 473.5,-288.5 473.5,-269.5 409.5,-269.5"/>
<polygon fill="none" stroke="#000000" points="409.5,-269.5 409.5,-288.5 473.5,-288.5 473.5,-269.5 409.5,-269.5"/>
<text text-anchor="start" x="412.5" y="-275.9" font-family="Helvetica,sans-Serif" font-size="12.00" fill="#000000">A2</text>
<polygon fill="#ffffff" stroke="transparent" points="473.5,-269.5 473.5,-288.5 527.5,-288.5 527.5,-269.5 473.5,-269.5"/>
<polygon fill="none" stroke="#000000" points="473.5,-269.5 473.5,-288.5 527.5,-288.5 527.5,-269.5 473.5,-269.5"/>
<text text-anchor="start" x="476.5" y="-275.9" font-family="Helvetica,sans-Serif" font-size="12.00" fill="#000000">varchar</text>
<polygon fill="#ffffff" stroke="transparent" points="409.5,-250.5 409.5,-269.5 473.5,-269.5 473.5,-250.5 409.5,-250.5"/>
<polygon fill="none" stroke="#000000" points="409.5,-250.5 409.5,-269.5 473.5,-269.5 473.5,-250.5 409.5,-250.5"/>
<text text-anchor="start" x="412.5" y="-256.9" font-family="Helvetica,sans-Serif" font-size="12.00" fill="#000000">A3</text>
<polygon fill="#ffffff" stroke="transparent" points="473.5,-250.5 473.5,-269.5 527.5,-269.5 527.5,-250.5 473.5,-250.5"/>
<polygon fill="none" stroke="#000000" points="473.5,-250.5 473.5,-269.5 527.5,-269.5 527.5,-250.5 473.5,-250.5"/>
<text text-anchor="start" x="476.5" y="-256.9" font-family="Helvetica,sans-Serif" font-size="12.00" fill="#000000">varchar</text>
<polygon fill="#ffffff" stroke="transparent" points="409.5,-231.5 409.5,-250.5 473.5,-250.5 473.5,-231.5 409.5,-231.5"/>
<polygon fill="none" stroke="#000000" points="409.5,-231.5 409.5,-250.5 473.5,-250.5 473.5,-231.5 409.5,-231.5"/>
<text text-anchor="start" x="412.5" y="-237.9" font-family="Helvetica,sans-Serif" font-size="12.00" fill="#000000">A4</text>
<polygon fill="#ffffff" stroke="transparent" points="473.5,-231.5 473.5,-250.5 527.5,-250.5 527.5,-231.5 473.5,-231.5"/>
<polygon fill="none" stroke="#000000" points="473.5,-231.5 473.5,-250.5 527.5,-250.5 527.5,-231.5 473.5,-231.5"/>
<text text-anchor="start" x="476.5" y="-237.9" font-family="Helvetica,sans-Serif" font-size="12.00" fill="#000000">int</text>
<polygon fill="#ffffff" stroke="transparent" points="409.5,-212.5 409.5,-231.5 473.5,-231.5 473.5,-212.5 409.5,-212.5"/>
<polygon fill="none" stroke="#000000" points="409.5,-212.5 409.5,-231.5 473.5,-231.5 473.5,-212.5 409.5,-212.5"/>
<text text-anchor="start" x="412.5" y="-218.9" font-family="Helvetica,sans-Serif" font-size="12.00" fill="#000000">A5</text>
<polygon fill="#ffffff" stroke="transparent" points="473.5,-212.5 473.5,-231.5 527.5,-231.5 527.5,-212.5 473.5,-212.5"/>
<polygon fill="none" stroke="#000000" points="473.5,-212.5 473.5,-231.5 527.5,-231.5 527.5,-212.5 473.5,-212.5"/>
<text text-anchor="start" x="476.5" y="-218.9" font-family="Helvetica,sans-Serif" font-size="12.00" fill="#000000">int</text>
<polygon fill="#ffffff" stroke="transparent" points="409.5,-193.5 409.5,-212.5 473.5,-212.5 473.5,-193.5 409.5,-193.5"/>
<polygon fill="none" stroke="#000000" points="409.5,-193.5 409.5,-212.5 473.5,-212.5 473.5,-193.5 409.5,-193.5"/>
<text text-anchor="start" x="412.5" y="-199.9" font-family="Helvetica,sans-Serif" font-size="12.00" fill="#000000">A6</text>
<polygon fill="#ffffff" stroke="transparent" points="473.5,-193.5 473.5,-212.5 527.5,-212.5 527.5,-193.5 473.5,-193.5"/>
<polygon fill="none" stroke="#000000" points="473.5,-193.5 473.5,-212.5 527.5,-212.5 527.5,-193.5 473.5,-193.5"/>
<text text-anchor="start" x="476.5" y="-199.9" font-family="Helvetica,sans-Serif" font-size="12.00" fill="#000000">int</text>
<polygon fill="#ffffff" stroke="transparent" points="409.5,-174.5 409.5,-193.5 473.5,-193.5 473.5,-174.5 409.5,-174.5"/>
<polygon fill="none" stroke="#000000" points="409.5,-174.5 409.5,-193.5 473.5,-193.5 473.5,-174.5 409.5,-174.5"/>
<text text-anchor="start" x="412.5" y="-180.9" font-family="Helvetica,sans-Serif" font-size="12.00" fill="#000000">A7</text>
<polygon fill="#ffffff" stroke="transparent" points="473.5,-174.5 473.5,-193.5 527.5,-193.5 527.5,-174.5 473.5,-174.5"/>
<polygon fill="none" stroke="#000000" points="473.5,-174.5 473.5,-193.5 527.5,-193.5 527.5,-174.5 473.5,-174.5"/>
<text text-anchor="start" x="476.5" y="-180.9" font-family="Helvetica,sans-Serif" font-size="12.00" fill="#000000">int</text>
<polygon fill="#ffffff" stroke="transparent" points="409.5,-155.5 409.5,-174.5 473.5,-174.5 473.5,-155.5 409.5,-155.5"/>
<polygon fill="none" stroke="#000000" points="409.5,-155.5 409.5,-174.5 473.5,-174.5 473.5,-155.5 409.5,-155.5"/>
<text text-anchor="start" x="412.5" y="-161.9" font-family="Helvetica,sans-Serif" font-size="12.00" fill="#000000">A8</text>
<polygon fill="#ffffff" stroke="transparent" points="473.5,-155.5 473.5,-174.5 527.5,-174.5 527.5,-155.5 473.5,-155.5"/>
<polygon fill="none" stroke="#000000" points="473.5,-155.5 473.5,-174.5 527.5,-174.5 527.5,-155.5 473.5,-155.5"/>
<text text-anchor="start" x="476.5" y="-161.9" font-family="Helvetica,sans-Serif" font-size="12.00" fill="#000000">int</text>
<polygon fill="#ffffff" stroke="transparent" points="409.5,-136.5 409.5,-155.5 473.5,-155.5 473.5,-136.5 409.5,-136.5"/>
<polygon fill="none" stroke="#000000" points="409.5,-136.5 409.5,-155.5 473.5,-155.5 473.5,-136.5 409.5,-136.5"/>
<text text-anchor="start" x="412.5" y="-142.9" font-family="Helvetica,sans-Serif" font-size="12.00" fill="#000000">A9</text>
<polygon fill="#ffffff" stroke="transparent" points="473.5,-136.5 473.5,-155.5 527.5,-155.5 527.5,-136.5 473.5,-136.5"/>
<polygon fill="none" stroke="#000000" points="473.5,-136.5 473.5,-155.5 527.5,-155.5 527.5,-136.5 473.5,-136.5"/>
<text text-anchor="start" x="476.5" y="-142.9" font-family="Helvetica,sans-Serif" font-size="12.00" fill="#000000">int</text>
<polygon fill="#ffffff" stroke="transparent" points="409.5,-117.5 409.5,-136.5 473.5,-136.5 473.5,-117.5 409.5,-117.5"/>
<polygon fill="none" stroke="#000000" points="409.5,-117.5 409.5,-136.5 473.5,-136.5 473.5,-117.5 409.5,-117.5"/>
<text text-anchor="start" x="412.5" y="-123.9" font-family="Helvetica,sans-Serif" font-size="12.00" fill="#000000">A10</text>
<polygon fill="#ffffff" stroke="transparent" points="473.5,-117.5 473.5,-136.5 527.5,-136.5 527.5,-117.5 473.5,-117.5"/>
<polygon fill="none" stroke="#000000" points="473.5,-117.5 473.5,-136.5 527.5,-136.5 527.5,-117.5 473.5,-117.5"/>
<text text-anchor="start" x="476.5" y="-123.9" font-family="Helvetica,sans-Serif" font-size="12.00" fill="#000000">decimal</text>
<polygon fill="#ffffff" stroke="transparent" points="409.5,-98.5 409.5,-117.5 473.5,-117.5 473.5,-98.5 409.5,-98.5"/>
<polygon fill="none" stroke="#000000" points="409.5,-98.5 409.5,-117.5 473.5,-117.5 473.5,-98.5 409.5,-98.5"/>
<text text-anchor="start" x="412.5" y="-104.9" font-family="Helvetica,sans-Serif" font-size="12.00" fill="#000000">A11</text>
<polygon fill="#ffffff" stroke="transparent" points="473.5,-98.5 473.5,-117.5 527.5,-117.5 527.5,-98.5 473.5,-98.5"/>
<polygon fill="none" stroke="#000000" points="473.5,-98.5 473.5,-117.5 527.5,-117.5 527.5,-98.5 473.5,-98.5"/>
<text text-anchor="start" x="476.5" y="-104.9" font-family="Helvetica,sans-Serif" font-size="12.00" fill="#000000">int</text>
<polygon fill="#ffffff" stroke="transparent" points="409.5,-79.5 409.5,-98.5 473.5,-98.5 473.5,-79.5 409.5,-79.5"/>
<polygon fill="none" stroke="#000000" points="409.5,-79.5 409.5,-98.5 473.5,-98.5 473.5,-79.5 409.5,-79.5"/>
<text text-anchor="start" x="412.5" y="-85.9" font-family="Helvetica,sans-Serif" font-size="12.00" fill="#000000">A12</text>
<polygon fill="#ffffff" stroke="transparent" points="473.5,-79.5 473.5,-98.5 527.5,-98.5 527.5,-79.5 473.5,-79.5"/>
<polygon fill="none" stroke="#000000" points="473.5,-79.5 473.5,-98.5 527.5,-98.5 527.5,-79.5 473.5,-79.5"/>
<text text-anchor="start" x="476.5" y="-85.9" font-family="Helvetica,sans-Serif" font-size="12.00" fill="#000000">decimal</text>
<polygon fill="#ffffff" stroke="transparent" points="409.5,-60.5 409.5,-79.5 473.5,-79.5 473.5,-60.5 409.5,-60.5"/>
<polygon fill="none" stroke="#000000" points="409.5,-60.5 409.5,-79.5 473.5,-79.5 473.5,-60.5 409.5,-60.5"/>
<text text-anchor="start" x="412.5" y="-66.9" font-family="Helvetica,sans-Serif" font-size="12.00" fill="#000000">A13</text>
<polygon fill="#ffffff" stroke="transparent" points="473.5,-60.5 473.5,-79.5 527.5,-79.5 527.5,-60.5 473.5,-60.5"/>
<polygon fill="none" stroke="#000000" points="473.5,-60.5 473.5,-79.5 527.5,-79.5 527.5,-60.5 473.5,-60.5"/>
<text text-anchor="start" x="476.5" y="-66.9" font-family="Helvetica,sans-Serif" font-size="12.00" fill="#000000">decimal</text>
<polygon fill="#ffffff" stroke="transparent" points="409.5,-41.5 409.5,-60.5 473.5,-60.5 473.5,-41.5 409.5,-41.5"/>
<polygon fill="none" stroke="#000000" points="409.5,-41.5 409.5,-60.5 473.5,-60.5 473.5,-41.5 409.5,-41.5"/>
<text text-anchor="start" x="412.5" y="-47.9" font-family="Helvetica,sans-Serif" font-size="12.00" fill="#000000">A14</text>
<polygon fill="#ffffff" stroke="transparent" points="473.5,-41.5 473.5,-60.5 527.5,-60.5 527.5,-41.5 473.5,-41.5"/>
<polygon fill="none" stroke="#000000" points="473.5,-41.5 473.5,-60.5 527.5,-60.5 527.5,-41.5 473.5,-41.5"/>
<text text-anchor="start" x="476.5" y="-47.9" font-family="Helvetica,sans-Serif" font-size="12.00" fill="#000000">int</text>
<polygon fill="#ffffff" stroke="transparent" points="409.5,-22.5 409.5,-41.5 473.5,-41.5 473.5,-22.5 409.5,-22.5"/>
<polygon fill="none" stroke="#000000" points="409.5,-22.5 409.5,-41.5 473.5,-41.5 473.5,-22.5 409.5,-22.5"/>
<text text-anchor="start" x="412.5" y="-28.9" font-family="Helvetica,sans-Serif" font-size="12.00" fill="#000000">A15</text>
<polygon fill="#ffffff" stroke="transparent" points="473.5,-22.5 473.5,-41.5 527.5,-41.5 527.5,-22.5 473.5,-22.5"/>
<polygon fill="none" stroke="#000000" points="473.5,-22.5 473.5,-41.5 527.5,-41.5 527.5,-22.5 473.5,-22.5"/>
<text text-anchor="start" x="476.5" y="-28.9" font-family="Helvetica,sans-Serif" font-size="12.00" fill="#000000">int</text>
<polygon fill="#ffffff" stroke="transparent" points="409.5,-3.5 409.5,-22.5 473.5,-22.5 473.5,-3.5 409.5,-3.5"/>
<polygon fill="none" stroke="#000000" points="409.5,-3.5 409.5,-22.5 473.5,-22.5 473.5,-3.5 409.5,-3.5"/>
<text text-anchor="start" x="412.5" y="-9.9" font-family="Helvetica,sans-Serif" font-size="12.00" fill="#000000">A16</text>
<polygon fill="#ffffff" stroke="transparent" points="473.5,-3.5 473.5,-22.5 527.5,-22.5 527.5,-3.5 473.5,-3.5"/>
<polygon fill="none" stroke="#000000" points="473.5,-3.5 473.5,-22.5 527.5,-22.5 527.5,-3.5 473.5,-3.5"/>
<text text-anchor="start" x="476.5" y="-9.9" font-family="Helvetica,sans-Serif" font-size="12.00" fill="#000000">int</text>
</g>
<!-- account -->
<g id="node2" class="node">
<title>account</title>
<polygon fill="#e6e6fa" stroke="transparent" points="328.5,-450.5 328.5,-473.5 452.5,-473.5 452.5,-450.5 328.5,-450.5"/>
<polygon fill="none" stroke="#000000" points="328.5,-450.5 328.5,-473.5 452.5,-473.5 452.5,-450.5 328.5,-450.5"/>
<text text-anchor="start" x="364" y="-458.9" font-family="Helvetica,sans-Serif" font-weight="bold" font-size="12.00" fill="#000000">account</text>
<polygon fill="#ffffff" stroke="transparent" points="328.5,-431.5 328.5,-450.5 399.5,-450.5 399.5,-431.5 328.5,-431.5"/>
<polygon fill="none" stroke="#000000" points="328.5,-431.5 328.5,-450.5 399.5,-450.5 399.5,-431.5 328.5,-431.5"/>
<text text-anchor="start" x="331.5" y="-437.9" font-family="Helvetica,sans-Serif" font-size="12.00" fill="#000000">account_id</text>
<polygon fill="#ffffff" stroke="transparent" points="399.5,-431.5 399.5,-450.5 452.5,-450.5 452.5,-431.5 399.5,-431.5"/>
<polygon fill="none" stroke="#000000" points="399.5,-431.5 399.5,-450.5 452.5,-450.5 452.5,-431.5 399.5,-431.5"/>
<text text-anchor="start" x="402.5" y="-437.9" font-family="Helvetica,sans-Serif" font-size="12.00" fill="#000000">int</text>
<polygon fill="#ffffff" stroke="transparent" points="328.5,-412.5 328.5,-431.5 399.5,-431.5 399.5,-412.5 328.5,-412.5"/>
<polygon fill="none" stroke="#000000" points="328.5,-412.5 328.5,-431.5 399.5,-431.5 399.5,-412.5 328.5,-412.5"/>
<text text-anchor="start" x="331.5" y="-418.9" font-family="Helvetica,sans-Serif" font-size="12.00" fill="#000000">district_id</text>
<polygon fill="#ffffff" stroke="transparent" points="399.5,-412.5 399.5,-431.5 452.5,-431.5 452.5,-412.5 399.5,-412.5"/>
<polygon fill="none" stroke="#000000" points="399.5,-412.5 399.5,-431.5 452.5,-431.5 452.5,-412.5 399.5,-412.5"/>
<text text-anchor="start" x="402.5" y="-418.9" font-family="Helvetica,sans-Serif" font-size="12.00" fill="#000000">int</text>
<polygon fill="#ffffff" stroke="transparent" points="328.5,-393.5 328.5,-412.5 399.5,-412.5 399.5,-393.5 328.5,-393.5"/>
<polygon fill="none" stroke="#000000" points="328.5,-393.5 328.5,-412.5 399.5,-412.5 399.5,-393.5 328.5,-393.5"/>
<text text-anchor="start" x="331.5" y="-399.9" font-family="Helvetica,sans-Serif" font-size="12.00" fill="#000000">frequency</text>
<polygon fill="#ffffff" stroke="transparent" points="399.5,-393.5 399.5,-412.5 452.5,-412.5 452.5,-393.5 399.5,-393.5"/>
<polygon fill="none" stroke="#000000" points="399.5,-393.5 399.5,-412.5 452.5,-412.5 452.5,-393.5 399.5,-393.5"/>
<text text-anchor="start" x="402.5" y="-399.9" font-family="Helvetica,sans-Serif" font-size="12.00" fill="#000000">varchar</text>
<polygon fill="#ffffff" stroke="transparent" points="328.5,-374.5 328.5,-393.5 399.5,-393.5 399.5,-374.5 328.5,-374.5"/>
<polygon fill="none" stroke="#000000" points="328.5,-374.5 328.5,-393.5 399.5,-393.5 399.5,-374.5 328.5,-374.5"/>
<text text-anchor="start" x="331.5" y="-380.9" font-family="Helvetica,sans-Serif" font-size="12.00" fill="#000000">date</text>
<polygon fill="#ffffff" stroke="transparent" points="399.5,-374.5 399.5,-393.5 452.5,-393.5 452.5,-374.5 399.5,-374.5"/>
<polygon fill="none" stroke="#000000" points="399.5,-374.5 399.5,-393.5 452.5,-393.5 452.5,-374.5 399.5,-374.5"/>
<text text-anchor="start" x="402.5" y="-380.9" font-family="Helvetica,sans-Serif" font-size="12.00" fill="#000000">date</text>
</g>
<!-- account&#45;&gt;district -->
<g id="edge1" class="edge">
<title>account&#45;&gt;district</title>
<path fill="none" stroke="#000000" d="M431,-370.9372C431,-370.9372 431,-345.0078 431,-345.0078"/>
<polygon fill="#000000" stroke="#000000" points="434.5001,-345.0077 431,-335.0078 427.5001,-345.0078 434.5001,-345.0077"/>
</g>
<!-- disp -->
<g id="node3" class="node">
<title>disp</title>
<polygon fill="#e6e6fa" stroke="transparent" points="486.5,-650.5 486.5,-673.5 610.5,-673.5 610.5,-650.5 486.5,-650.5"/>
<polygon fill="none" stroke="#000000" points="486.5,-650.5 486.5,-673.5 610.5,-673.5 610.5,-650.5 486.5,-650.5"/>
<text text-anchor="start" x="534.5" y="-658.9" font-family="Helvetica,sans-Serif" font-weight="bold" font-size="12.00" fill="#000000">disp</text>
<polygon fill="#ffffff" stroke="transparent" points="486.5,-631.5 486.5,-650.5 557.5,-650.5 557.5,-631.5 486.5,-631.5"/>
<polygon fill="none" stroke="#000000" points="486.5,-631.5 486.5,-650.5 557.5,-650.5 557.5,-631.5 486.5,-631.5"/>
<text text-anchor="start" x="489.5" y="-637.9" font-family="Helvetica,sans-Serif" font-size="12.00" fill="#000000">disp_id</text>
<polygon fill="#ffffff" stroke="transparent" points="557.5,-631.5 557.5,-650.5 610.5,-650.5 610.5,-631.5 557.5,-631.5"/>
<polygon fill="none" stroke="#000000" points="557.5,-631.5 557.5,-650.5 610.5,-650.5 610.5,-631.5 557.5,-631.5"/>
<text text-anchor="start" x="560.5" y="-637.9" font-family="Helvetica,sans-Serif" font-size="12.00" fill="#000000">int</text>
<polygon fill="#ffffff" stroke="transparent" points="486.5,-612.5 486.5,-631.5 557.5,-631.5 557.5,-612.5 486.5,-612.5"/>
<polygon fill="none" stroke="#000000" points="486.5,-612.5 486.5,-631.5 557.5,-631.5 557.5,-612.5 486.5,-612.5"/>
<text text-anchor="start" x="489.5" y="-618.9" font-family="Helvetica,sans-Serif" font-size="12.00" fill="#000000">client_id</text>
<polygon fill="#ffffff" stroke="transparent" points="557.5,-612.5 557.5,-631.5 610.5,-631.5 610.5,-612.5 557.5,-612.5"/>
<polygon fill="none" stroke="#000000" points="557.5,-612.5 557.5,-631.5 610.5,-631.5 610.5,-612.5 557.5,-612.5"/>
<text text-anchor="start" x="560.5" y="-618.9" font-family="Helvetica,sans-Serif" font-size="12.00" fill="#000000">int</text>
<polygon fill="#ffffff" stroke="transparent" points="486.5,-593.5 486.5,-612.5 557.5,-612.5 557.5,-593.5 486.5,-593.5"/>
<polygon fill="none" stroke="#000000" points="486.5,-593.5 486.5,-612.5 557.5,-612.5 557.5,-593.5 486.5,-593.5"/>
<text text-anchor="start" x="489.5" y="-599.9" font-family="Helvetica,sans-Serif" font-size="12.00" fill="#000000">account_id</text>
<polygon fill="#ffffff" stroke="transparent" points="557.5,-593.5 557.5,-612.5 610.5,-612.5 610.5,-593.5 557.5,-593.5"/>
<polygon fill="none" stroke="#000000" points="557.5,-593.5 557.5,-612.5 610.5,-612.5 610.5,-593.5 557.5,-593.5"/>
<text text-anchor="start" x="560.5" y="-599.9" font-family="Helvetica,sans-Serif" font-size="12.00" fill="#000000">int</text>
<polygon fill="#ffffff" stroke="transparent" points="486.5,-574.5 486.5,-593.5 557.5,-593.5 557.5,-574.5 486.5,-574.5"/>
<polygon fill="none" stroke="#000000" points="486.5,-574.5 486.5,-593.5 557.5,-593.5 557.5,-574.5 486.5,-574.5"/>
<text text-anchor="start" x="489.5" y="-580.9" font-family="Helvetica,sans-Serif" font-size="12.00" fill="#000000">type</text>
<polygon fill="#ffffff" stroke="transparent" points="557.5,-574.5 557.5,-593.5 610.5,-593.5 610.5,-574.5 557.5,-574.5"/>
<polygon fill="none" stroke="#000000" points="557.5,-574.5 557.5,-593.5 610.5,-593.5 610.5,-574.5 557.5,-574.5"/>
<text text-anchor="start" x="560.5" y="-580.9" font-family="Helvetica,sans-Serif" font-size="12.00" fill="#000000">varchar</text>
</g>
<!-- disp&#45;&gt;account -->
<g id="edge5" class="edge">
<title>disp&#45;&gt;account</title>
<path fill="none" stroke="#000000" d="M478.2562,-624C472.8861,-624 469.5,-624 469.5,-624 469.5,-624 469.5,-424 469.5,-424 469.5,-424 468.6244,-424 468.6244,-424"/>
<polygon fill="#000000" stroke="#000000" points="470.7438,-420.5001 460.7438,-424 470.7437,-427.5001 470.7438,-420.5001"/>
</g>
<!-- client -->
<g id="node5" class="node">
<title>client</title>
<polygon fill="#e6e6fa" stroke="transparent" points="487.5,-450.5 487.5,-473.5 607.5,-473.5 607.5,-450.5 487.5,-450.5"/>
<polygon fill="none" stroke="#000000" points="487.5,-450.5 487.5,-473.5 607.5,-473.5 607.5,-450.5 487.5,-450.5"/>
<text text-anchor="start" x="529" y="-458.9" font-family="Helvetica,sans-Serif" font-weight="bold" font-size="12.00" fill="#000000">client</text>
<polygon fill="#ffffff" stroke="transparent" points="487.5,-431.5 487.5,-450.5 554.5,-450.5 554.5,-431.5 487.5,-431.5"/>
<polygon fill="none" stroke="#000000" points="487.5,-431.5 487.5,-450.5 554.5,-450.5 554.5,-431.5 487.5,-431.5"/>
<text text-anchor="start" x="490.5" y="-437.9" font-family="Helvetica,sans-Serif" font-size="12.00" fill="#000000">client_id</text>
<polygon fill="#ffffff" stroke="transparent" points="554.5,-431.5 554.5,-450.5 607.5,-450.5 607.5,-431.5 554.5,-431.5"/>
<polygon fill="none" stroke="#000000" points="554.5,-431.5 554.5,-450.5 607.5,-450.5 607.5,-431.5 554.5,-431.5"/>
<text text-anchor="start" x="557.5" y="-437.9" font-family="Helvetica,sans-Serif" font-size="12.00" fill="#000000">int</text>
<polygon fill="#ffffff" stroke="transparent" points="487.5,-412.5 487.5,-431.5 554.5,-431.5 554.5,-412.5 487.5,-412.5"/>
<polygon fill="none" stroke="#000000" points="487.5,-412.5 487.5,-431.5 554.5,-431.5 554.5,-412.5 487.5,-412.5"/>
<text text-anchor="start" x="490.5" y="-418.9" font-family="Helvetica,sans-Serif" font-size="12.00" fill="#000000">gender</text>
<polygon fill="#ffffff" stroke="transparent" points="554.5,-412.5 554.5,-431.5 607.5,-431.5 607.5,-412.5 554.5,-412.5"/>
<polygon fill="none" stroke="#000000" points="554.5,-412.5 554.5,-431.5 607.5,-431.5 607.5,-412.5 554.5,-412.5"/>
<text text-anchor="start" x="557.5" y="-418.9" font-family="Helvetica,sans-Serif" font-size="12.00" fill="#000000">varchar</text>
<polygon fill="#ffffff" stroke="transparent" points="487.5,-393.5 487.5,-412.5 554.5,-412.5 554.5,-393.5 487.5,-393.5"/>
<polygon fill="none" stroke="#000000" points="487.5,-393.5 487.5,-412.5 554.5,-412.5 554.5,-393.5 487.5,-393.5"/>
<text text-anchor="start" x="490.5" y="-399.9" font-family="Helvetica,sans-Serif" font-size="12.00" fill="#000000">birth_date</text>
<polygon fill="#ffffff" stroke="transparent" points="554.5,-393.5 554.5,-412.5 607.5,-412.5 607.5,-393.5 554.5,-393.5"/>
<polygon fill="none" stroke="#000000" points="554.5,-393.5 554.5,-412.5 607.5,-412.5 607.5,-393.5 554.5,-393.5"/>
<text text-anchor="start" x="557.5" y="-399.9" font-family="Helvetica,sans-Serif" font-size="12.00" fill="#000000">date</text>
<polygon fill="#ffffff" stroke="transparent" points="487.5,-374.5 487.5,-393.5 554.5,-393.5 554.5,-374.5 487.5,-374.5"/>
<polygon fill="none" stroke="#000000" points="487.5,-374.5 487.5,-393.5 554.5,-393.5 554.5,-374.5 487.5,-374.5"/>
<text text-anchor="start" x="490.5" y="-380.9" font-family="Helvetica,sans-Serif" font-size="12.00" fill="#000000">district_id</text>
<polygon fill="#ffffff" stroke="transparent" points="554.5,-374.5 554.5,-393.5 607.5,-393.5 607.5,-374.5 554.5,-374.5"/>
<polygon fill="none" stroke="#000000" points="554.5,-374.5 554.5,-393.5 607.5,-393.5 607.5,-374.5 554.5,-374.5"/>
<text text-anchor="start" x="557.5" y="-380.9" font-family="Helvetica,sans-Serif" font-size="12.00" fill="#000000">int</text>
</g>
<!-- disp&#45;&gt;client -->
<g id="edge4" class="edge">
<title>disp&#45;&gt;client</title>
<path fill="none" stroke="#000000" d="M547.5,-570.9037C547.5,-570.9037 547.5,-488.2443 547.5,-488.2443"/>
<polygon fill="#000000" stroke="#000000" points="551.0001,-488.2442 547.5,-478.2443 544.0001,-488.2443 551.0001,-488.2442"/>
</g>
<!-- card -->
<g id="node4" class="node">
<title>card</title>
<polygon fill="#e6e6fa" stroke="transparent" points="497.5,-850.5 497.5,-873.5 600.5,-873.5 600.5,-850.5 497.5,-850.5"/>
<polygon fill="none" stroke="#000000" points="497.5,-850.5 497.5,-873.5 600.5,-873.5 600.5,-850.5 497.5,-850.5"/>
<text text-anchor="start" x="534" y="-858.9" font-family="Helvetica,sans-Serif" font-weight="bold" font-size="12.00" fill="#000000">card</text>
<polygon fill="#ffffff" stroke="transparent" points="497.5,-831.5 497.5,-850.5 547.5,-850.5 547.5,-831.5 497.5,-831.5"/>
<polygon fill="none" stroke="#000000" points="497.5,-831.5 497.5,-850.5 547.5,-850.5 547.5,-831.5 497.5,-831.5"/>
<text text-anchor="start" x="500.5" y="-837.9" font-family="Helvetica,sans-Serif" font-size="12.00" fill="#000000">card_id</text>
<polygon fill="#ffffff" stroke="transparent" points="547.5,-831.5 547.5,-850.5 600.5,-850.5 600.5,-831.5 547.5,-831.5"/>
<polygon fill="none" stroke="#000000" points="547.5,-831.5 547.5,-850.5 600.5,-850.5 600.5,-831.5 547.5,-831.5"/>
<text text-anchor="start" x="550.5" y="-837.9" font-family="Helvetica,sans-Serif" font-size="12.00" fill="#000000">int</text>
<polygon fill="#ffffff" stroke="transparent" points="497.5,-812.5 497.5,-831.5 547.5,-831.5 547.5,-812.5 497.5,-812.5"/>
<polygon fill="none" stroke="#000000" points="497.5,-812.5 497.5,-831.5 547.5,-831.5 547.5,-812.5 497.5,-812.5"/>
<text text-anchor="start" x="500.5" y="-818.9" font-family="Helvetica,sans-Serif" font-size="12.00" fill="#000000">disp_id</text>
<polygon fill="#ffffff" stroke="transparent" points="547.5,-812.5 547.5,-831.5 600.5,-831.5 600.5,-812.5 547.5,-812.5"/>
<polygon fill="none" stroke="#000000" points="547.5,-812.5 547.5,-831.5 600.5,-831.5 600.5,-812.5 547.5,-812.5"/>
<text text-anchor="start" x="550.5" y="-818.9" font-family="Helvetica,sans-Serif" font-size="12.00" fill="#000000">int</text>
<polygon fill="#ffffff" stroke="transparent" points="497.5,-793.5 497.5,-812.5 547.5,-812.5 547.5,-793.5 497.5,-793.5"/>
<polygon fill="none" stroke="#000000" points="497.5,-793.5 497.5,-812.5 547.5,-812.5 547.5,-793.5 497.5,-793.5"/>
<text text-anchor="start" x="500.5" y="-799.9" font-family="Helvetica,sans-Serif" font-size="12.00" fill="#000000">type</text>
<polygon fill="#ffffff" stroke="transparent" points="547.5,-793.5 547.5,-812.5 600.5,-812.5 600.5,-793.5 547.5,-793.5"/>
<polygon fill="none" stroke="#000000" points="547.5,-793.5 547.5,-812.5 600.5,-812.5 600.5,-793.5 547.5,-793.5"/>
<text text-anchor="start" x="550.5" y="-799.9" font-family="Helvetica,sans-Serif" font-size="12.00" fill="#000000">varchar</text>
<polygon fill="#ffffff" stroke="transparent" points="497.5,-774.5 497.5,-793.5 547.5,-793.5 547.5,-774.5 497.5,-774.5"/>
<polygon fill="none" stroke="#000000" points="497.5,-774.5 497.5,-793.5 547.5,-793.5 547.5,-774.5 497.5,-774.5"/>
<text text-anchor="start" x="500.5" y="-780.9" font-family="Helvetica,sans-Serif" font-size="12.00" fill="#000000">issued</text>
<polygon fill="#ffffff" stroke="transparent" points="547.5,-774.5 547.5,-793.5 600.5,-793.5 600.5,-774.5 547.5,-774.5"/>
<polygon fill="none" stroke="#000000" points="547.5,-774.5 547.5,-793.5 600.5,-793.5 600.5,-774.5 547.5,-774.5"/>
<text text-anchor="start" x="550.5" y="-780.9" font-family="Helvetica,sans-Serif" font-size="12.00" fill="#000000">date</text>
</g>
<!-- card&#45;&gt;disp -->
<g id="edge2" class="edge">
<title>card&#45;&gt;disp</title>
<path fill="none" stroke="#000000" d="M548.5,-770.9037C548.5,-770.9037 548.5,-688.2443 548.5,-688.2443"/>
<polygon fill="#000000" stroke="#000000" points="552.0001,-688.2442 548.5,-678.2443 545.0001,-688.2443 552.0001,-688.2442"/>
</g>
<!-- client&#45;&gt;district -->
<g id="edge3" class="edge">
<title>client&#45;&gt;district</title>
<path fill="none" stroke="#000000" d="M507.5,-370.9372C507.5,-370.9372 507.5,-345.0078 507.5,-345.0078"/>
<polygon fill="#000000" stroke="#000000" points="511.0001,-345.0077 507.5,-335.0078 504.0001,-345.0078 511.0001,-345.0077"/>
</g>
<!-- loan -->
<g id="node6" class="node">
<title>loan</title>
<polygon fill="#e6e6fa" stroke="transparent" points="8.5,-679.5 8.5,-702.5 133.5,-702.5 133.5,-679.5 8.5,-679.5"/>
<polygon fill="none" stroke="#000000" points="8.5,-679.5 8.5,-702.5 133.5,-702.5 133.5,-679.5 8.5,-679.5"/>
<text text-anchor="start" x="56.5" y="-687.9" font-family="Helvetica,sans-Serif" font-weight="bold" font-size="12.00" fill="#000000">loan</text>
<polygon fill="#ffffff" stroke="transparent" points="8.5,-660.5 8.5,-679.5 79.5,-679.5 79.5,-660.5 8.5,-660.5"/>
<polygon fill="none" stroke="#000000" points="8.5,-660.5 8.5,-679.5 79.5,-679.5 79.5,-660.5 8.5,-660.5"/>
<text text-anchor="start" x="11.5" y="-666.9" font-family="Helvetica,sans-Serif" font-size="12.00" fill="#000000">loan_id</text>
<polygon fill="#ffffff" stroke="transparent" points="79.5,-660.5 79.5,-679.5 133.5,-679.5 133.5,-660.5 79.5,-660.5"/>
<polygon fill="none" stroke="#000000" points="79.5,-660.5 79.5,-679.5 133.5,-679.5 133.5,-660.5 79.5,-660.5"/>
<text text-anchor="start" x="82.5" y="-666.9" font-family="Helvetica,sans-Serif" font-size="12.00" fill="#000000">int</text>
<polygon fill="#ffffff" stroke="transparent" points="8.5,-641.5 8.5,-660.5 79.5,-660.5 79.5,-641.5 8.5,-641.5"/>
<polygon fill="none" stroke="#000000" points="8.5,-641.5 8.5,-660.5 79.5,-660.5 79.5,-641.5 8.5,-641.5"/>
<text text-anchor="start" x="11.5" y="-647.9" font-family="Helvetica,sans-Serif" font-size="12.00" fill="#000000">account_id</text>
<polygon fill="#ffffff" stroke="transparent" points="79.5,-641.5 79.5,-660.5 133.5,-660.5 133.5,-641.5 79.5,-641.5"/>
<polygon fill="none" stroke="#000000" points="79.5,-641.5 79.5,-660.5 133.5,-660.5 133.5,-641.5 79.5,-641.5"/>
<text text-anchor="start" x="82.5" y="-647.9" font-family="Helvetica,sans-Serif" font-size="12.00" fill="#000000">int</text>
<polygon fill="#ffffff" stroke="transparent" points="8.5,-622.5 8.5,-641.5 79.5,-641.5 79.5,-622.5 8.5,-622.5"/>
<polygon fill="none" stroke="#000000" points="8.5,-622.5 8.5,-641.5 79.5,-641.5 79.5,-622.5 8.5,-622.5"/>
<text text-anchor="start" x="11.5" y="-628.9" font-family="Helvetica,sans-Serif" font-size="12.00" fill="#000000">date</text>
<polygon fill="#ffffff" stroke="transparent" points="79.5,-622.5 79.5,-641.5 133.5,-641.5 133.5,-622.5 79.5,-622.5"/>
<polygon fill="none" stroke="#000000" points="79.5,-622.5 79.5,-641.5 133.5,-641.5 133.5,-622.5 79.5,-622.5"/>
<text text-anchor="start" x="82.5" y="-628.9" font-family="Helvetica,sans-Serif" font-size="12.00" fill="#000000">date</text>
<polygon fill="#ffffff" stroke="transparent" points="8.5,-603.5 8.5,-622.5 79.5,-622.5 79.5,-603.5 8.5,-603.5"/>
<polygon fill="none" stroke="#000000" points="8.5,-603.5 8.5,-622.5 79.5,-622.5 79.5,-603.5 8.5,-603.5"/>
<text text-anchor="start" x="11.5" y="-609.9" font-family="Helvetica,sans-Serif" font-size="12.00" fill="#000000">amount</text>
<polygon fill="#ffffff" stroke="transparent" points="79.5,-603.5 79.5,-622.5 133.5,-622.5 133.5,-603.5 79.5,-603.5"/>
<polygon fill="none" stroke="#000000" points="79.5,-603.5 79.5,-622.5 133.5,-622.5 133.5,-603.5 79.5,-603.5"/>
<text text-anchor="start" x="82.5" y="-609.9" font-family="Helvetica,sans-Serif" font-size="12.00" fill="#000000">int</text>
<polygon fill="#ffffff" stroke="transparent" points="8.5,-584.5 8.5,-603.5 79.5,-603.5 79.5,-584.5 8.5,-584.5"/>
<polygon fill="none" stroke="#000000" points="8.5,-584.5 8.5,-603.5 79.5,-603.5 79.5,-584.5 8.5,-584.5"/>
<text text-anchor="start" x="11.5" y="-590.9" font-family="Helvetica,sans-Serif" font-size="12.00" fill="#000000">duration</text>
<polygon fill="#ffffff" stroke="transparent" points="79.5,-584.5 79.5,-603.5 133.5,-603.5 133.5,-584.5 79.5,-584.5"/>
<polygon fill="none" stroke="#000000" points="79.5,-584.5 79.5,-603.5 133.5,-603.5 133.5,-584.5 79.5,-584.5"/>
<text text-anchor="start" x="82.5" y="-590.9" font-family="Helvetica,sans-Serif" font-size="12.00" fill="#000000">int</text>
<polygon fill="#ffffff" stroke="transparent" points="8.5,-565.5 8.5,-584.5 79.5,-584.5 79.5,-565.5 8.5,-565.5"/>
<polygon fill="none" stroke="#000000" points="8.5,-565.5 8.5,-584.5 79.5,-584.5 79.5,-565.5 8.5,-565.5"/>
<text text-anchor="start" x="11.5" y="-571.9" font-family="Helvetica,sans-Serif" font-size="12.00" fill="#000000">payments</text>
<polygon fill="#ffffff" stroke="transparent" points="79.5,-565.5 79.5,-584.5 133.5,-584.5 133.5,-565.5 79.5,-565.5"/>
<polygon fill="none" stroke="#000000" points="79.5,-565.5 79.5,-584.5 133.5,-584.5 133.5,-565.5 79.5,-565.5"/>
<text text-anchor="start" x="82.5" y="-571.9" font-family="Helvetica,sans-Serif" font-size="12.00" fill="#000000">decimal</text>
<polygon fill="#ffffff" stroke="transparent" points="8.5,-546.5 8.5,-565.5 79.5,-565.5 79.5,-546.5 8.5,-546.5"/>
<polygon fill="none" stroke="#000000" points="8.5,-546.5 8.5,-565.5 79.5,-565.5 79.5,-546.5 8.5,-546.5"/>
<text text-anchor="start" x="11.5" y="-552.9" font-family="Helvetica,sans-Serif" font-size="12.00" fill="#000000">status</text>
<polygon fill="#ffffff" stroke="transparent" points="79.5,-546.5 79.5,-565.5 133.5,-565.5 133.5,-546.5 79.5,-546.5"/>
<polygon fill="none" stroke="#000000" points="79.5,-546.5 79.5,-565.5 133.5,-565.5 133.5,-546.5 79.5,-546.5"/>
<text text-anchor="start" x="82.5" y="-552.9" font-family="Helvetica,sans-Serif" font-size="12.00" fill="#000000">varchar</text>
</g>
<!-- loan&#45;&gt;account -->
<g id="edge6" class="edge">
<title>loan&#45;&gt;account</title>
<path fill="none" stroke="#000000" d="M70.5,-542.2059C70.5,-480.2677 70.5,-406 70.5,-406 70.5,-406 310.2746,-406 310.2746,-406"/>
<polygon fill="#000000" stroke="#000000" points="310.2747,-409.5001 320.2746,-406 310.2746,-402.5001 310.2747,-409.5001"/>
</g>
<!-- order -->
<g id="node7" class="node">
<title>order</title>
<polygon fill="#e6e6fa" stroke="transparent" points="167.5,-669.5 167.5,-692.5 294.5,-692.5 294.5,-669.5 167.5,-669.5"/>
<polygon fill="none" stroke="#000000" points="167.5,-669.5 167.5,-692.5 294.5,-692.5 294.5,-669.5 167.5,-669.5"/>
<text text-anchor="start" x="212.5" y="-677.9" font-family="Helvetica,sans-Serif" font-weight="bold" font-size="12.00" fill="#000000">order</text>
<polygon fill="#ffffff" stroke="transparent" points="167.5,-650.5 167.5,-669.5 240.5,-669.5 240.5,-650.5 167.5,-650.5"/>
<polygon fill="none" stroke="#000000" points="167.5,-650.5 167.5,-669.5 240.5,-669.5 240.5,-650.5 167.5,-650.5"/>
<text text-anchor="start" x="170.5" y="-656.9" font-family="Helvetica,sans-Serif" font-size="12.00" fill="#000000">order_id</text>
<polygon fill="#ffffff" stroke="transparent" points="240.5,-650.5 240.5,-669.5 294.5,-669.5 294.5,-650.5 240.5,-650.5"/>
<polygon fill="none" stroke="#000000" points="240.5,-650.5 240.5,-669.5 294.5,-669.5 294.5,-650.5 240.5,-650.5"/>
<text text-anchor="start" x="243.5" y="-656.9" font-family="Helvetica,sans-Serif" font-size="12.00" fill="#000000">int</text>
<polygon fill="#ffffff" stroke="transparent" points="167.5,-631.5 167.5,-650.5 240.5,-650.5 240.5,-631.5 167.5,-631.5"/>
<polygon fill="none" stroke="#000000" points="167.5,-631.5 167.5,-650.5 240.5,-650.5 240.5,-631.5 167.5,-631.5"/>
<text text-anchor="start" x="170.5" y="-637.9" font-family="Helvetica,sans-Serif" font-size="12.00" fill="#000000">account_id</text>
<polygon fill="#ffffff" stroke="transparent" points="240.5,-631.5 240.5,-650.5 294.5,-650.5 294.5,-631.5 240.5,-631.5"/>
<polygon fill="none" stroke="#000000" points="240.5,-631.5 240.5,-650.5 294.5,-650.5 294.5,-631.5 240.5,-631.5"/>
<text text-anchor="start" x="243.5" y="-637.9" font-family="Helvetica,sans-Serif" font-size="12.00" fill="#000000">int</text>
<polygon fill="#ffffff" stroke="transparent" points="167.5,-612.5 167.5,-631.5 240.5,-631.5 240.5,-612.5 167.5,-612.5"/>
<polygon fill="none" stroke="#000000" points="167.5,-612.5 167.5,-631.5 240.5,-631.5 240.5,-612.5 167.5,-612.5"/>
<text text-anchor="start" x="170.5" y="-618.9" font-family="Helvetica,sans-Serif" font-size="12.00" fill="#000000">bank_to</text>
<polygon fill="#ffffff" stroke="transparent" points="240.5,-612.5 240.5,-631.5 294.5,-631.5 294.5,-612.5 240.5,-612.5"/>
<polygon fill="none" stroke="#000000" points="240.5,-612.5 240.5,-631.5 294.5,-631.5 294.5,-612.5 240.5,-612.5"/>
<text text-anchor="start" x="243.5" y="-618.9" font-family="Helvetica,sans-Serif" font-size="12.00" fill="#000000">varchar</text>
<polygon fill="#ffffff" stroke="transparent" points="167.5,-593.5 167.5,-612.5 240.5,-612.5 240.5,-593.5 167.5,-593.5"/>
<polygon fill="none" stroke="#000000" points="167.5,-593.5 167.5,-612.5 240.5,-612.5 240.5,-593.5 167.5,-593.5"/>
<text text-anchor="start" x="170.5" y="-599.9" font-family="Helvetica,sans-Serif" font-size="12.00" fill="#000000">account_to</text>
<polygon fill="#ffffff" stroke="transparent" points="240.5,-593.5 240.5,-612.5 294.5,-612.5 294.5,-593.5 240.5,-593.5"/>
<polygon fill="none" stroke="#000000" points="240.5,-593.5 240.5,-612.5 294.5,-612.5 294.5,-593.5 240.5,-593.5"/>
<text text-anchor="start" x="243.5" y="-599.9" font-family="Helvetica,sans-Serif" font-size="12.00" fill="#000000">int</text>
<polygon fill="#ffffff" stroke="transparent" points="167.5,-574.5 167.5,-593.5 240.5,-593.5 240.5,-574.5 167.5,-574.5"/>
<polygon fill="none" stroke="#000000" points="167.5,-574.5 167.5,-593.5 240.5,-593.5 240.5,-574.5 167.5,-574.5"/>
<text text-anchor="start" x="170.5" y="-580.9" font-family="Helvetica,sans-Serif" font-size="12.00" fill="#000000">amount</text>
<polygon fill="#ffffff" stroke="transparent" points="240.5,-574.5 240.5,-593.5 294.5,-593.5 294.5,-574.5 240.5,-574.5"/>
<polygon fill="none" stroke="#000000" points="240.5,-574.5 240.5,-593.5 294.5,-593.5 294.5,-574.5 240.5,-574.5"/>
<text text-anchor="start" x="243.5" y="-580.9" font-family="Helvetica,sans-Serif" font-size="12.00" fill="#000000">decimal</text>
<polygon fill="#ffffff" stroke="transparent" points="167.5,-555.5 167.5,-574.5 240.5,-574.5 240.5,-555.5 167.5,-555.5"/>
<polygon fill="none" stroke="#000000" points="167.5,-555.5 167.5,-574.5 240.5,-574.5 240.5,-555.5 167.5,-555.5"/>
<text text-anchor="start" x="170.5" y="-561.9" font-family="Helvetica,sans-Serif" font-size="12.00" fill="#000000">k_symbol</text>
<polygon fill="#ffffff" stroke="transparent" points="240.5,-555.5 240.5,-574.5 294.5,-574.5 294.5,-555.5 240.5,-555.5"/>
<polygon fill="none" stroke="#000000" points="240.5,-555.5 240.5,-574.5 294.5,-574.5 294.5,-555.5 240.5,-555.5"/>
<text text-anchor="start" x="243.5" y="-561.9" font-family="Helvetica,sans-Serif" font-size="12.00" fill="#000000">varchar</text>
</g>
<!-- order&#45;&gt;account -->
<g id="edge7" class="edge">
<title>order&#45;&gt;account</title>
<path fill="none" stroke="#000000" d="M230.5,-551.8468C230.5,-500.9534 230.5,-442 230.5,-442 230.5,-442 310.3217,-442 310.3217,-442"/>
<polygon fill="#000000" stroke="#000000" points="310.3217,-445.5001 320.3217,-442 310.3216,-438.5001 310.3217,-445.5001"/>
</g>
<!-- trans -->
<g id="node8" class="node">
<title>trans</title>
<polygon fill="#e6e6fa" stroke="transparent" points="328.5,-707.5 328.5,-730.5 452.5,-730.5 452.5,-707.5 328.5,-707.5"/>
<polygon fill="none" stroke="#000000" points="328.5,-707.5 328.5,-730.5 452.5,-730.5 452.5,-707.5 328.5,-707.5"/>
<text text-anchor="start" x="372" y="-715.9" font-family="Helvetica,sans-Serif" font-weight="bold" font-size="12.00" fill="#000000">trans</text>
<polygon fill="#ffffff" stroke="transparent" points="328.5,-688.5 328.5,-707.5 399.5,-707.5 399.5,-688.5 328.5,-688.5"/>
<polygon fill="none" stroke="#000000" points="328.5,-688.5 328.5,-707.5 399.5,-707.5 399.5,-688.5 328.5,-688.5"/>
<text text-anchor="start" x="331.5" y="-694.9" font-family="Helvetica,sans-Serif" font-size="12.00" fill="#000000">trans_id</text>
<polygon fill="#ffffff" stroke="transparent" points="399.5,-688.5 399.5,-707.5 452.5,-707.5 452.5,-688.5 399.5,-688.5"/>
<polygon fill="none" stroke="#000000" points="399.5,-688.5 399.5,-707.5 452.5,-707.5 452.5,-688.5 399.5,-688.5"/>
<text text-anchor="start" x="402.5" y="-694.9" font-family="Helvetica,sans-Serif" font-size="12.00" fill="#000000">int</text>
<polygon fill="#ffffff" stroke="transparent" points="328.5,-669.5 328.5,-688.5 399.5,-688.5 399.5,-669.5 328.5,-669.5"/>
<polygon fill="none" stroke="#000000" points="328.5,-669.5 328.5,-688.5 399.5,-688.5 399.5,-669.5 328.5,-669.5"/>
<text text-anchor="start" x="331.5" y="-675.9" font-family="Helvetica,sans-Serif" font-size="12.00" fill="#000000">account_id</text>
<polygon fill="#ffffff" stroke="transparent" points="399.5,-669.5 399.5,-688.5 452.5,-688.5 452.5,-669.5 399.5,-669.5"/>
<polygon fill="none" stroke="#000000" points="399.5,-669.5 399.5,-688.5 452.5,-688.5 452.5,-669.5 399.5,-669.5"/>
<text text-anchor="start" x="402.5" y="-675.9" font-family="Helvetica,sans-Serif" font-size="12.00" fill="#000000">int</text>
<polygon fill="#ffffff" stroke="transparent" points="328.5,-650.5 328.5,-669.5 399.5,-669.5 399.5,-650.5 328.5,-650.5"/>
<polygon fill="none" stroke="#000000" points="328.5,-650.5 328.5,-669.5 399.5,-669.5 399.5,-650.5 328.5,-650.5"/>
<text text-anchor="start" x="331.5" y="-656.9" font-family="Helvetica,sans-Serif" font-size="12.00" fill="#000000">date</text>
<polygon fill="#ffffff" stroke="transparent" points="399.5,-650.5 399.5,-669.5 452.5,-669.5 452.5,-650.5 399.5,-650.5"/>
<polygon fill="none" stroke="#000000" points="399.5,-650.5 399.5,-669.5 452.5,-669.5 452.5,-650.5 399.5,-650.5"/>
<text text-anchor="start" x="402.5" y="-656.9" font-family="Helvetica,sans-Serif" font-size="12.00" fill="#000000">date</text>
<polygon fill="#ffffff" stroke="transparent" points="328.5,-631.5 328.5,-650.5 399.5,-650.5 399.5,-631.5 328.5,-631.5"/>
<polygon fill="none" stroke="#000000" points="328.5,-631.5 328.5,-650.5 399.5,-650.5 399.5,-631.5 328.5,-631.5"/>
<text text-anchor="start" x="331.5" y="-637.9" font-family="Helvetica,sans-Serif" font-size="12.00" fill="#000000">type</text>
<polygon fill="#ffffff" stroke="transparent" points="399.5,-631.5 399.5,-650.5 452.5,-650.5 452.5,-631.5 399.5,-631.5"/>
<polygon fill="none" stroke="#000000" points="399.5,-631.5 399.5,-650.5 452.5,-650.5 452.5,-631.5 399.5,-631.5"/>
<text text-anchor="start" x="402.5" y="-637.9" font-family="Helvetica,sans-Serif" font-size="12.00" fill="#000000">varchar</text>
<polygon fill="#ffffff" stroke="transparent" points="328.5,-612.5 328.5,-631.5 399.5,-631.5 399.5,-612.5 328.5,-612.5"/>
<polygon fill="none" stroke="#000000" points="328.5,-612.5 328.5,-631.5 399.5,-631.5 399.5,-612.5 328.5,-612.5"/>
<text text-anchor="start" x="331.5" y="-618.9" font-family="Helvetica,sans-Serif" font-size="12.00" fill="#000000">operation</text>
<polygon fill="#ffffff" stroke="transparent" points="399.5,-612.5 399.5,-631.5 452.5,-631.5 452.5,-612.5 399.5,-612.5"/>
<polygon fill="none" stroke="#000000" points="399.5,-612.5 399.5,-631.5 452.5,-631.5 452.5,-612.5 399.5,-612.5"/>
<text text-anchor="start" x="402.5" y="-618.9" font-family="Helvetica,sans-Serif" font-size="12.00" fill="#000000">varchar</text>
<polygon fill="#ffffff" stroke="transparent" points="328.5,-593.5 328.5,-612.5 399.5,-612.5 399.5,-593.5 328.5,-593.5"/>
<polygon fill="none" stroke="#000000" points="328.5,-593.5 328.5,-612.5 399.5,-612.5 399.5,-593.5 328.5,-593.5"/>
<text text-anchor="start" x="331.5" y="-599.9" font-family="Helvetica,sans-Serif" font-size="12.00" fill="#000000">amount</text>
<polygon fill="#ffffff" stroke="transparent" points="399.5,-593.5 399.5,-612.5 452.5,-612.5 452.5,-593.5 399.5,-593.5"/>
<polygon fill="none" stroke="#000000" points="399.5,-593.5 399.5,-612.5 452.5,-612.5 452.5,-593.5 399.5,-593.5"/>
<text text-anchor="start" x="402.5" y="-599.9" font-family="Helvetica,sans-Serif" font-size="12.00" fill="#000000">int</text>
<polygon fill="#ffffff" stroke="transparent" points="328.5,-574.5 328.5,-593.5 399.5,-593.5 399.5,-574.5 328.5,-574.5"/>
<polygon fill="none" stroke="#000000" points="328.5,-574.5 328.5,-593.5 399.5,-593.5 399.5,-574.5 328.5,-574.5"/>
<text text-anchor="start" x="331.5" y="-580.9" font-family="Helvetica,sans-Serif" font-size="12.00" fill="#000000">balance</text>
<polygon fill="#ffffff" stroke="transparent" points="399.5,-574.5 399.5,-593.5 452.5,-593.5 452.5,-574.5 399.5,-574.5"/>
<polygon fill="none" stroke="#000000" points="399.5,-574.5 399.5,-593.5 452.5,-593.5 452.5,-574.5 399.5,-574.5"/>
<text text-anchor="start" x="402.5" y="-580.9" font-family="Helvetica,sans-Serif" font-size="12.00" fill="#000000">int</text>
<polygon fill="#ffffff" stroke="transparent" points="328.5,-555.5 328.5,-574.5 399.5,-574.5 399.5,-555.5 328.5,-555.5"/>
<polygon fill="none" stroke="#000000" points="328.5,-555.5 328.5,-574.5 399.5,-574.5 399.5,-555.5 328.5,-555.5"/>
<text text-anchor="start" x="331.5" y="-561.9" font-family="Helvetica,sans-Serif" font-size="12.00" fill="#000000">k_symbol</text>
<polygon fill="#ffffff" stroke="transparent" points="399.5,-555.5 399.5,-574.5 452.5,-574.5 452.5,-555.5 399.5,-555.5"/>
<polygon fill="none" stroke="#000000" points="399.5,-555.5 399.5,-574.5 452.5,-574.5 452.5,-555.5 399.5,-555.5"/>
<text text-anchor="start" x="402.5" y="-561.9" font-family="Helvetica,sans-Serif" font-size="12.00" fill="#000000">varchar</text>
<polygon fill="#ffffff" stroke="transparent" points="328.5,-536.5 328.5,-555.5 399.5,-555.5 399.5,-536.5 328.5,-536.5"/>
<polygon fill="none" stroke="#000000" points="328.5,-536.5 328.5,-555.5 399.5,-555.5 399.5,-536.5 328.5,-536.5"/>
<text text-anchor="start" x="331.5" y="-542.9" font-family="Helvetica,sans-Serif" font-size="12.00" fill="#000000">bank</text>
<polygon fill="#ffffff" stroke="transparent" points="399.5,-536.5 399.5,-555.5 452.5,-555.5 452.5,-536.5 399.5,-536.5"/>
<polygon fill="none" stroke="#000000" points="399.5,-536.5 399.5,-555.5 452.5,-555.5 452.5,-536.5 399.5,-536.5"/>
<text text-anchor="start" x="402.5" y="-542.9" font-family="Helvetica,sans-Serif" font-size="12.00" fill="#000000">varchar</text>
<polygon fill="#ffffff" stroke="transparent" points="328.5,-517.5 328.5,-536.5 399.5,-536.5 399.5,-517.5 328.5,-517.5"/>
<polygon fill="none" stroke="#000000" points="328.5,-517.5 328.5,-536.5 399.5,-536.5 399.5,-517.5 328.5,-517.5"/>
<text text-anchor="start" x="331.5" y="-523.9" font-family="Helvetica,sans-Serif" font-size="12.00" fill="#000000">account</text>
<polygon fill="#ffffff" stroke="transparent" points="399.5,-517.5 399.5,-536.5 452.5,-536.5 452.5,-517.5 399.5,-517.5"/>
<polygon fill="none" stroke="#000000" points="399.5,-517.5 399.5,-536.5 452.5,-536.5 452.5,-517.5 399.5,-517.5"/>
<text text-anchor="start" x="402.5" y="-523.9" font-family="Helvetica,sans-Serif" font-size="12.00" fill="#000000">int</text>
</g>
<!-- trans&#45;&gt;account -->
<g id="edge8" class="edge">
<title>trans&#45;&gt;account</title>
<path fill="none" stroke="#000000" d="M390.5,-513.9705C390.5,-513.9705 390.5,-488.0183 390.5,-488.0183"/>
<polygon fill="#000000" stroke="#000000" points="394.0001,-488.0183 390.5,-478.0183 387.0001,-488.0183 394.0001,-488.0183"/>
</g>
</g>
</svg>
